<!-- Generator: Adobe Illustrator 18.1.0, SVG Export Plug-In  -->
<svg version="1.1"
	 xmlns="http://www.w3.org/2000/svg" xmlns:xlink="http://www.w3.org/1999/xlink" xmlns:a="http://ns.adobe.com/AdobeSVGViewerExtensions/3.0/"
	 x="0px" y="0px" width="252px" height="209.969px" viewBox="0 0 252 209.969" enable-background="new 0 0 252 209.969"
	 xml:space="preserve">
<defs>
</defs>
<g>
	<path d="M4.922,173.059v4.629c0,1,0.109,1.621,0.328,1.863c0.297,0.344,0.746,0.516,1.348,0.516h0.609v0.434H0.398v-0.434h0.598
		c0.672,0,1.152-0.219,1.441-0.656c0.156-0.242,0.234-0.816,0.234-1.723v-10.266c0-1-0.105-1.621-0.316-1.863
		c-0.305-0.344-0.758-0.516-1.359-0.516H0.398v-0.434h5.824c1.422,0,2.543,0.146,3.363,0.439s1.512,0.787,2.074,1.482
		s0.844,1.52,0.844,2.473c0,1.297-0.428,2.352-1.283,3.164s-2.064,1.219-3.627,1.219c-0.383,0-0.797-0.027-1.242-0.082
		S5.43,173.168,4.922,173.059z M4.922,172.391c0.414,0.078,0.781,0.137,1.102,0.176s0.594,0.059,0.82,0.059
		c0.812,0,1.514-0.314,2.104-0.943s0.885-1.443,0.885-2.443c0-0.688-0.141-1.326-0.422-1.916s-0.68-1.031-1.195-1.324
		s-1.102-0.439-1.758-0.439c-0.398,0-0.91,0.074-1.535,0.223V172.391z"/>
	<path d="M41.566,180.5h-4.242l-5.379-7.43c-0.398,0.016-0.723,0.023-0.973,0.023c-0.102,0-0.211-0.002-0.328-0.006
		s-0.238-0.01-0.363-0.018v4.617c0,1,0.109,1.621,0.328,1.863c0.297,0.344,0.742,0.516,1.336,0.516h0.621v0.434h-6.809v-0.434h0.598
		c0.672,0,1.152-0.219,1.441-0.656c0.164-0.242,0.246-0.816,0.246-1.723v-10.266c0-1-0.109-1.621-0.328-1.863
		c-0.305-0.344-0.758-0.516-1.359-0.516h-0.598v-0.434h5.789c1.688,0,2.932,0.123,3.732,0.369s1.48,0.699,2.039,1.359
		s0.838,1.447,0.838,2.361c0,0.977-0.318,1.824-0.955,2.543s-1.623,1.227-2.959,1.523l3.281,4.559
		c0.75,1.047,1.395,1.742,1.934,2.086s1.242,0.562,2.109,0.656V180.5z M30.281,172.332c0.148,0,0.277,0.002,0.387,0.006
		s0.199,0.006,0.27,0.006c1.516,0,2.658-0.328,3.428-0.984s1.154-1.492,1.154-2.508c0-0.992-0.311-1.799-0.932-2.42
		s-1.443-0.932-2.467-0.932c-0.453,0-1.066,0.074-1.84,0.223V172.332z"/>
	<path d="M62.133,164.246c2.062,0,3.85,0.783,5.361,2.35s2.268,3.521,2.268,5.865c0,2.414-0.762,4.418-2.285,6.012
		s-3.367,2.391-5.531,2.391c-2.188,0-4.025-0.777-5.514-2.332s-2.232-3.566-2.232-6.035c0-2.523,0.859-4.582,2.578-6.176
		C58.27,164.938,60.055,164.246,62.133,164.246z M61.91,165.102c-1.422,0-2.562,0.527-3.422,1.582
		c-1.07,1.312-1.605,3.234-1.605,5.766c0,2.594,0.555,4.59,1.664,5.988c0.852,1.062,1.977,1.594,3.375,1.594
		c1.492,0,2.725-0.582,3.697-1.746s1.459-3,1.459-5.508c0-2.719-0.535-4.746-1.605-6.082
		C64.613,165.633,63.426,165.102,61.91,165.102z"/>
	<path d="M92.508,180.5l-6.141-13.371v10.617c0,0.977,0.105,1.586,0.316,1.828c0.289,0.328,0.746,0.492,1.371,0.492h0.562v0.434
		h-5.531v-0.434h0.562c0.672,0,1.148-0.203,1.43-0.609c0.172-0.25,0.258-0.82,0.258-1.711v-10.383c0-0.703-0.078-1.211-0.234-1.523
		c-0.109-0.227-0.311-0.416-0.604-0.568s-0.764-0.229-1.412-0.229v-0.434h4.5l5.766,12.434l5.672-12.434h4.5v0.434h-0.551
		c-0.68,0-1.16,0.203-1.441,0.609c-0.172,0.25-0.258,0.82-0.258,1.711v10.383c0,0.977,0.109,1.586,0.328,1.828
		c0.289,0.328,0.746,0.492,1.371,0.492h0.551v0.434h-6.75v-0.434h0.562c0.68,0,1.156-0.203,1.43-0.609
		c0.172-0.25,0.258-0.82,0.258-1.711v-10.617L92.895,180.5H92.508z"/>
	<path d="M121.043,165.477v6.281h3.492c0.906,0,1.512-0.137,1.816-0.41c0.406-0.359,0.633-0.992,0.68-1.898h0.434v5.531h-0.434
		c-0.109-0.773-0.219-1.27-0.328-1.488c-0.141-0.273-0.371-0.488-0.691-0.645s-0.812-0.234-1.477-0.234h-3.492v5.238
		c0,0.703,0.031,1.131,0.094,1.283s0.172,0.273,0.328,0.363s0.453,0.135,0.891,0.135h2.695c0.898,0,1.551-0.062,1.957-0.188
		s0.797-0.371,1.172-0.738c0.484-0.484,0.98-1.215,1.488-2.191h0.469l-1.371,3.984H116.52v-0.434h0.562
		c0.375,0,0.73-0.09,1.066-0.27c0.25-0.125,0.42-0.312,0.51-0.562s0.135-0.762,0.135-1.535v-10.324c0-1.008-0.102-1.629-0.305-1.863
		c-0.281-0.312-0.75-0.469-1.406-0.469h-0.562v-0.434h12.246l0.176,3.48h-0.457c-0.164-0.836-0.346-1.41-0.545-1.723
		s-0.494-0.551-0.885-0.715c-0.312-0.117-0.863-0.176-1.652-0.176H121.043z"/>
	<path d="M156.574,164.61l0.176,3.727h-0.445c-0.086-0.656-0.203-1.125-0.352-1.406c-0.242-0.453-0.564-0.787-0.967-1.002
		s-0.932-0.322-1.588-0.322h-2.238v12.141c0,0.977,0.105,1.586,0.316,1.828c0.297,0.328,0.754,0.492,1.371,0.492h0.551v0.434h-6.738
		v-0.434h0.562c0.672,0,1.148-0.203,1.43-0.609c0.172-0.25,0.258-0.82,0.258-1.711v-12.141H147c-0.742,0-1.27,0.055-1.582,0.164
		c-0.406,0.148-0.754,0.434-1.043,0.855s-0.461,0.992-0.516,1.711h-0.445l0.188-3.727H156.574z"/>
	<path d="M174.281,171.981h7.383v-4.547c0-0.812-0.051-1.348-0.152-1.605c-0.078-0.195-0.242-0.363-0.492-0.504
		c-0.336-0.188-0.691-0.281-1.066-0.281h-0.562v-0.434h6.797v0.434h-0.562c-0.375,0-0.73,0.09-1.066,0.27
		c-0.25,0.125-0.42,0.314-0.51,0.568s-0.135,0.771-0.135,1.553v10.254c0,0.805,0.051,1.336,0.152,1.594
		c0.078,0.195,0.238,0.363,0.48,0.504c0.344,0.188,0.703,0.281,1.078,0.281h0.562v0.434h-6.797v-0.434h0.562
		c0.648,0,1.121-0.191,1.418-0.574c0.195-0.25,0.293-0.852,0.293-1.805v-4.84h-7.383v4.84c0,0.805,0.051,1.336,0.152,1.594
		c0.078,0.195,0.242,0.363,0.492,0.504c0.336,0.188,0.691,0.281,1.066,0.281h0.574v0.434h-6.809v-0.434h0.562
		c0.656,0,1.133-0.191,1.43-0.574c0.188-0.25,0.281-0.852,0.281-1.805v-10.254c0-0.812-0.051-1.348-0.152-1.605
		c-0.078-0.195-0.238-0.363-0.48-0.504c-0.344-0.188-0.703-0.281-1.078-0.281h-0.562v-0.434h6.809v0.434h-0.574
		c-0.375,0-0.73,0.09-1.066,0.27c-0.242,0.125-0.41,0.314-0.504,0.568s-0.141,0.771-0.141,1.553V171.981z"/>
	<path d="M203.695,165.477v6.281h3.492c0.906,0,1.512-0.137,1.816-0.41c0.406-0.359,0.633-0.992,0.68-1.898h0.434v5.531h-0.434
		c-0.109-0.773-0.219-1.27-0.328-1.488c-0.141-0.273-0.371-0.488-0.691-0.645s-0.812-0.234-1.477-0.234h-3.492v5.238
		c0,0.703,0.031,1.131,0.094,1.283s0.172,0.273,0.328,0.363s0.453,0.135,0.891,0.135h2.695c0.898,0,1.551-0.062,1.957-0.188
		s0.797-0.371,1.172-0.738c0.484-0.484,0.98-1.215,1.488-2.191h0.469l-1.371,3.984h-12.246v-0.434h0.562
		c0.375,0,0.73-0.09,1.066-0.27c0.25-0.125,0.42-0.312,0.51-0.562s0.135-0.762,0.135-1.535v-10.324c0-1.008-0.102-1.629-0.305-1.863
		c-0.281-0.312-0.75-0.469-1.406-0.469h-0.562v-0.434h12.246l0.176,3.48h-0.457c-0.164-0.836-0.346-1.41-0.545-1.723
		s-0.494-0.551-0.885-0.715c-0.312-0.117-0.863-0.176-1.652-0.176H203.695z"/>
	<path d="M230.355,165.477v6.281h3.492c0.906,0,1.512-0.137,1.816-0.41c0.406-0.359,0.633-0.992,0.68-1.898h0.434v5.531h-0.434
		c-0.109-0.773-0.219-1.27-0.328-1.488c-0.141-0.273-0.371-0.488-0.691-0.645s-0.812-0.234-1.477-0.234h-3.492v5.238
		c0,0.703,0.031,1.131,0.094,1.283s0.172,0.273,0.328,0.363s0.453,0.135,0.891,0.135h2.695c0.898,0,1.551-0.062,1.957-0.188
		s0.797-0.371,1.172-0.738c0.484-0.484,0.98-1.215,1.488-2.191h0.469l-1.371,3.984h-12.246v-0.434h0.562
		c0.375,0,0.73-0.09,1.066-0.27c0.25-0.125,0.42-0.312,0.51-0.562s0.135-0.762,0.135-1.535v-10.324c0-1.008-0.102-1.629-0.305-1.863
		c-0.281-0.312-0.75-0.469-1.406-0.469h-0.562v-0.434h12.246l0.176,3.48h-0.457c-0.164-0.836-0.346-1.41-0.545-1.723
		s-0.494-0.551-0.885-0.715c-0.312-0.117-0.863-0.176-1.652-0.176H230.355z"/>
</g>
<g>
	<path d="M77.909,206.289l-3.07-6.686v5.309c0,0.488,0.053,0.793,0.158,0.914c0.145,0.164,0.373,0.246,0.686,0.246h0.281v0.217
		h-2.766v-0.217h0.281c0.336,0,0.574-0.102,0.715-0.305c0.086-0.125,0.129-0.41,0.129-0.855v-5.191c0-0.352-0.039-0.605-0.117-0.762
		c-0.055-0.113-0.155-0.208-0.302-0.284s-0.382-0.114-0.706-0.114v-0.217h2.25l2.883,6.217l2.836-6.217h2.25v0.217h-0.275
		c-0.34,0-0.58,0.102-0.721,0.305c-0.086,0.125-0.129,0.41-0.129,0.855v5.191c0,0.488,0.055,0.793,0.164,0.914
		c0.145,0.164,0.373,0.246,0.686,0.246h0.275v0.217h-3.375v-0.217h0.281c0.34,0,0.578-0.102,0.715-0.305
		c0.086-0.125,0.129-0.41,0.129-0.855v-5.309l-3.064,6.686H77.909z"/>
	<path d="M92.177,198.777v3.141h1.746c0.453,0,0.756-0.068,0.908-0.205c0.203-0.18,0.316-0.496,0.34-0.949h0.217v2.766h-0.217
		c-0.055-0.387-0.109-0.635-0.164-0.744c-0.07-0.137-0.186-0.244-0.346-0.322s-0.406-0.117-0.738-0.117h-1.746v2.619
		c0,0.352,0.016,0.565,0.047,0.642s0.086,0.137,0.164,0.182s0.227,0.067,0.445,0.067h1.348c0.449,0,0.775-0.031,0.979-0.094
		s0.398-0.186,0.586-0.369c0.242-0.242,0.49-0.607,0.744-1.096h0.234l-0.686,1.992h-6.123v-0.217h0.281
		c0.188,0,0.365-0.045,0.533-0.135c0.125-0.062,0.21-0.156,0.255-0.281s0.067-0.381,0.067-0.768v-5.162
		c0-0.504-0.051-0.814-0.152-0.932c-0.141-0.156-0.375-0.234-0.703-0.234h-0.281v-0.217h6.123l0.088,1.74h-0.229
		c-0.082-0.418-0.173-0.705-0.272-0.861s-0.247-0.275-0.442-0.357c-0.156-0.059-0.432-0.088-0.826-0.088H92.177z"/>
	<path d="M109.942,198.344l0.088,1.863h-0.223c-0.043-0.328-0.102-0.562-0.176-0.703c-0.121-0.227-0.282-0.394-0.483-0.501
		s-0.466-0.161-0.794-0.161h-1.119v6.07c0,0.488,0.053,0.793,0.158,0.914c0.148,0.164,0.377,0.246,0.686,0.246h0.275v0.217h-3.369
		v-0.217h0.281c0.336,0,0.574-0.102,0.715-0.305c0.086-0.125,0.129-0.41,0.129-0.855v-6.07h-0.955c-0.371,0-0.635,0.027-0.791,0.082
		c-0.203,0.074-0.377,0.217-0.521,0.428s-0.23,0.496-0.258,0.855h-0.223l0.094-1.863H109.942z"/>
	<path d="M118.796,202.029h3.691v-2.273c0-0.406-0.025-0.674-0.076-0.803c-0.039-0.098-0.121-0.182-0.246-0.252
		c-0.168-0.094-0.346-0.141-0.533-0.141h-0.281v-0.217h3.398v0.217h-0.281c-0.188,0-0.365,0.045-0.533,0.135
		c-0.125,0.062-0.21,0.157-0.255,0.284s-0.067,0.386-0.067,0.776v5.127c0,0.402,0.025,0.668,0.076,0.797
		c0.039,0.098,0.119,0.182,0.24,0.252c0.172,0.094,0.352,0.141,0.539,0.141h0.281v0.217h-3.398v-0.217h0.281
		c0.324,0,0.561-0.096,0.709-0.287c0.098-0.125,0.146-0.426,0.146-0.902v-2.42h-3.691v2.42c0,0.402,0.025,0.668,0.076,0.797
		c0.039,0.098,0.121,0.182,0.246,0.252c0.168,0.094,0.346,0.141,0.533,0.141h0.287v0.217h-3.404v-0.217h0.281
		c0.328,0,0.566-0.096,0.715-0.287c0.094-0.125,0.141-0.426,0.141-0.902v-5.127c0-0.406-0.025-0.674-0.076-0.803
		c-0.039-0.098-0.119-0.182-0.24-0.252c-0.172-0.094-0.352-0.141-0.539-0.141h-0.281v-0.217h3.404v0.217h-0.287
		c-0.188,0-0.365,0.045-0.533,0.135c-0.121,0.062-0.205,0.157-0.252,0.284s-0.07,0.386-0.07,0.776V202.029z"/>
	<path d="M135.384,198.162c1.031,0,1.925,0.392,2.681,1.175s1.134,1.761,1.134,2.933c0,1.207-0.381,2.209-1.143,3.006
		s-1.684,1.195-2.766,1.195c-1.094,0-2.013-0.389-2.757-1.166s-1.116-1.783-1.116-3.018c0-1.262,0.43-2.291,1.289-3.088
		C133.452,198.508,134.345,198.162,135.384,198.162z M135.272,198.59c-0.711,0-1.281,0.264-1.711,0.791
		c-0.535,0.656-0.803,1.617-0.803,2.883c0,1.297,0.277,2.295,0.832,2.994c0.426,0.531,0.988,0.797,1.688,0.797
		c0.746,0,1.362-0.291,1.849-0.873s0.729-1.5,0.729-2.754c0-1.359-0.268-2.373-0.803-3.041
		C136.624,198.856,136.03,198.59,135.272,198.59z"/>
	<path d="M145.866,206.289v-0.217h0.299c0.336,0,0.574-0.107,0.715-0.322c0.086-0.129,0.129-0.418,0.129-0.867v-5.133
		c0-0.496-0.055-0.807-0.164-0.932c-0.152-0.172-0.379-0.258-0.68-0.258h-0.299v-0.217h3.234c1.188,0,2.091,0.135,2.71,0.404
		s1.117,0.719,1.494,1.348s0.565,1.355,0.565,2.18c0,1.105-0.336,2.029-1.008,2.771c-0.754,0.828-1.902,1.242-3.445,1.242H145.866z
		 M148.134,205.715c0.496,0.109,0.912,0.164,1.248,0.164c0.906,0,1.658-0.318,2.256-0.955s0.896-1.5,0.896-2.59
		c0-1.098-0.299-1.963-0.896-2.596s-1.365-0.949-2.303-0.949c-0.352,0-0.752,0.057-1.201,0.17V205.715z"/>
	<path d="M165.829,198.162v2.748h-0.217c-0.07-0.527-0.196-0.947-0.378-1.26s-0.44-0.561-0.776-0.744s-0.684-0.275-1.043-0.275
		c-0.406,0-0.742,0.124-1.008,0.372s-0.398,0.53-0.398,0.847c0,0.242,0.084,0.463,0.252,0.662c0.242,0.293,0.818,0.684,1.729,1.172
		c0.742,0.398,1.249,0.704,1.521,0.917s0.48,0.464,0.627,0.753s0.22,0.592,0.22,0.908c0,0.602-0.233,1.12-0.7,1.556
		s-1.067,0.653-1.802,0.653c-0.23,0-0.447-0.018-0.65-0.053c-0.121-0.02-0.372-0.091-0.753-0.214s-0.622-0.185-0.724-0.185
		c-0.098,0-0.175,0.029-0.231,0.088s-0.099,0.18-0.126,0.363h-0.217v-2.725h0.217c0.102,0.57,0.238,0.997,0.41,1.28
		s0.435,0.519,0.788,0.706s0.741,0.281,1.163,0.281c0.488,0,0.874-0.129,1.157-0.387s0.425-0.562,0.425-0.914
		c0-0.195-0.054-0.393-0.161-0.592s-0.274-0.385-0.501-0.557c-0.152-0.117-0.568-0.366-1.248-0.747s-1.163-0.685-1.45-0.911
		s-0.505-0.477-0.653-0.75s-0.223-0.574-0.223-0.902c0-0.57,0.219-1.062,0.656-1.474s0.994-0.618,1.67-0.618
		c0.422,0,0.869,0.104,1.342,0.311c0.219,0.098,0.373,0.146,0.463,0.146c0.102,0,0.185-0.03,0.249-0.091s0.116-0.183,0.155-0.366
		H165.829z"/>
</g>
<path d="M152.393,13.675l-1.106,0.906l-3.327,6.651c-0.805,1.008-2.764,2.769-2.764,2.769l-1.44,0.721
	c-2.041,1.921-17.692,8.889-20.455,12.37c-2.434,3.071-12.617,10.073-15.726,10.446c-2.432,0.293-6.595,2.554-8.089,3.402
	c-0.17-0.38-0.006-0.903,0.805-1.636c0,0,1.629-0.935,0.814-2.179c-0.814-1.246-5.804-8.353-6.635-9.143
	c-0.632-0.601-2.171-2.007-5.917,0.016c-3.745,2.026-9.082,10.858-6.206,11.67c8.227,2.326,8.974,8.246,8.974,8.246
	c-0.818,1.958-3.349,5.86-3.349,5.86s6.681,12.395,10.879,17.488c0,0,0.775,0.76,1.976,1.125c0.604,2.973,0.137,5.817-2.211,8.098
	c-9.259,8.994-7.671,14.546-7.671,14.546c-2.646,2.117-11.109,6.879-16.928,12.962c-5.819,6.083-12.695,8.2-12.695,8.2
	c-7.937,8.463-15.342,7.404-15.342,7.404c0.264,9.258-5.82,16.135-5.82,16.135h7.565c0,0-4.436-2.22,3.006-8.085
	c7.442-5.865,24.901-13.166,30.911-14.022c0,0,23.328-11.735,34.633-33.774c0,0-0.661,3.553-2.867,8.16
	c1.558-0.23,3.552-0.86,3.552-0.86c11.504-7.276,21.556-9.39,21.556-9.39c-8.199,2.117-19.704,10.842-22.748,13.094
	c-1.851,1.366-3.65,1.557-4.779,1.5c-0.564,0.882-1.186,1.776-1.87,2.664c0,0,2.864,8.589-5.866,17.746h3.433
	c0,0,6.011-11.877,14.455-16.599c8.443-4.725,24.472-14.455,26.761-17.746c2.29-3.293,0.143-10.02-4.007-10.162
	c0,0-11.162-0.287-24.471,4.293c0,0-1.254-6.719-0.445-13.595l-8.949,5.247c1.199-1.308,5.434-5.263,9.466-8.981
	c-0.006-0.02-0.007-0.028-0.013-0.049c0.099-0.092,8.27-7.74,9.424-8.086c0,0,1.334-2.727,3.247-5.164c0,0-0.568-1.022-1.264-0.442
	c-0.695,0.58-1.925,1.573-2.658,2.263c0,0-1.888,2.242-3.852,2.706c-1.152,0.271-2.572,0.351-2.964,1.152l-2.377,1.561l-1.453,0.737
	c-1.138-2.479-2.827-5.342-5.268-7.659c-0.073-0.935,0.106-3.24,3.299-4.743c4.082-1.921,12.605-10.443,12.605-10.443
	s18.016-13.262,19.941-15.489c0,0,3.022-1.611,3.727-2.921c0.706-1.31,3.123-2.117,3.729-2.419c0.604-0.303,1.01-4.636,1.01-4.636
	L152.393,13.675z"/>
<path fill="#F39200" d="M154.784,24.205c0.191-2.19,2.125-3.711,4.298-3.385l1.389,0.209c2.173,0.327,2.279-0.067,0.236-0.882
	l-1.226-0.485c-2.044-0.813-2.294-2.577-0.558-3.927l20.828-13.676c1.738-1.345,1.624-1.51-0.249-0.363l-21.091,10.97
	c-1.876,1.146-3.216,0.296-2.98-1.887l1.01-9.083c0.236-2.184-0.147-2.271-0.853-0.189l-2.738,9.205
	c-0.71,2.082-2.4,2.374-3.763,0.648L144.142,5.1c-1.363-1.724-1.66-1.533-0.664,0.426l3.856,7.573
	c0.997,1.958,0.232,4.418-1.697,5.467l-13.282,7.22c-1.933,1.05-1.823,1.294,0.242,0.541l14.879-5.429
	c2.064-0.753,4.103,0.396,4.528,2.551l1.204,6.094c0.428,2.156,0.933,2.128,1.12-0.065L154.784,24.205z"/>
</svg>